HIERARCHY
ROOT mixamorig:Hips
{
	OFFSET 0.000000 201.639420 0.000000
	CHANNELS 6 Xposition Yposition Zposition Xrotation Yrotation Zrotation
	JOINT mixamorig:Spine
	{
		OFFSET 0.006200 19.524994 -2.481800
		CHANNELS 3 Xrotation Yrotation Zrotation
		JOINT mixamorig:Spine1
		{
			OFFSET -0.000900 22.835007 -2.825400
			CHANNELS 3 Xrotation Yrotation Zrotation
			JOINT mixamorig:Spine2
			{
				OFFSET -0.020600 26.552490 -3.193300
				CHANNELS 3 Xrotation Yrotation Zrotation
				JOINT mixamorig:Neck
				{
					OFFSET -0.060000 30.701813 1.352200
					CHANNELS 3 Xrotation Yrotation Zrotation
					JOINT mixamorig:Head
					{
						OFFSET -0.087200 22.547607 3.670900
						CHANNELS 3 Xrotation Yrotation Zrotation
						JOINT mixamorig:HeadTop_End
						{
							OFFSET -0.830600 40.355194 7.893500
							CHANNELS 3 Xrotation Yrotation Zrotation
							End Site
							{
								OFFSET 0.000000 30.592346 0.000000
							}
						}
						JOINT mixamorig:RightEye
						{
							OFFSET -6.302100 18.118591 16.197100
							CHANNELS 3 Xrotation Yrotation Zrotation
							End Site
							{
								OFFSET 0.000000 30.592346 0.000000
							}
						}
						JOINT mixamorig:LeftEye
						{
							OFFSET 6.741500 18.382690 16.401899
							CHANNELS 3 Xrotation Yrotation Zrotation
							End Site
							{
								OFFSET 0.000000 30.592346 0.000000
							}
						}
					}
				}
				JOINT mixamorig:LeftShoulder
				{
					OFFSET 11.924900 18.230499 1.425400
					CHANNELS 3 Xrotation Yrotation Zrotation
					JOINT mixamorig:LeftArm
					{
						OFFSET 25.435989 -0.697632 -5.229300
						CHANNELS 3 Xrotation Yrotation Zrotation
						JOINT mixamorig:LeftForeArm
						{
							OFFSET 54.684776 0.000000 0.000000
							CHANNELS 3 Xrotation Yrotation Zrotation
							JOINT mixamorig:LeftHand
							{
								OFFSET 55.098175 0.000000 0.000000
								CHANNELS 3 Xrotation Yrotation Zrotation
								JOINT mixamorig:LeftHandMiddle1
								{
									OFFSET 23.369751 0.000000 0.000000
									CHANNELS 3 Xrotation Yrotation Zrotation
									JOINT mixamorig:LeftHandMiddle2
									{
										OFFSET 6.378677 0.000000 0.000000
										CHANNELS 3 Xrotation Yrotation Zrotation
										JOINT mixamorig:LeftHandMiddle3
										{
											OFFSET 6.148331 0.000000 0.000000
											CHANNELS 3 Xrotation Yrotation Zrotation
											JOINT mixamorig:LeftHandMiddle4
											{
												OFFSET 6.582504 0.000000 0.000000
												CHANNELS 3 Xrotation Yrotation Zrotation
												End Site
												{
													OFFSET -1.168900 6.395691 1.028606
												}
											}
										}
									}
								}
								JOINT mixamorig:LeftHandThumb1
								{
									OFFSET 7.235672 -3.848206 5.434273
									CHANNELS 3 Xrotation Yrotation Zrotation
									JOINT mixamorig:LeftHandThumb2
									{
										OFFSET 6.568451 -3.792297 3.792300
										CHANNELS 3 Xrotation Yrotation Zrotation
										JOINT mixamorig:LeftHandThumb3
										{
											OFFSET 6.063080 -3.500519 3.500518
											CHANNELS 3 Xrotation Yrotation Zrotation
											JOINT mixamorig:LeftHandThumb4
											{
												OFFSET 4.793182 -2.767334 2.767349
												CHANNELS 3 Xrotation Yrotation Zrotation
												End Site
												{
													OFFSET 0.101639 6.054260 1.275483
												}
											}
										}
									}
								}
								JOINT mixamorig:LeftHandIndex1
								{
									OFFSET 23.101074 -0.309540 4.992809
									CHANNELS 3 Xrotation Yrotation Zrotation
									JOINT mixamorig:LeftHandIndex2
									{
										OFFSET 6.226883 0.000000 0.000000
										CHANNELS 3 Xrotation Yrotation Zrotation
										JOINT mixamorig:LeftHandIndex3
										{
											OFFSET 6.094330 0.000000 0.000000
											CHANNELS 3 Xrotation Yrotation Zrotation
											JOINT mixamorig:LeftHandIndex4
											{
												OFFSET 5.482605 0.000000 0.000000
												CHANNELS 3 Xrotation Yrotation Zrotation
												End Site
												{
													OFFSET -1.427902 5.233032 0.797164
												}
											}
										}
									}
								}
								JOINT mixamorig:LeftHandRing1
								{
									OFFSET 22.299240 0.021149 -3.964172
									CHANNELS 3 Xrotation Yrotation Zrotation
									JOINT mixamorig:LeftHandRing2
									{
										OFFSET 6.321869 0.000000 0.000000
										CHANNELS 3 Xrotation Yrotation Zrotation
										JOINT mixamorig:LeftHandRing3
										{
											OFFSET 5.899796 0.000000 0.000000
											CHANNELS 3 Xrotation Yrotation Zrotation
											JOINT mixamorig:LeftHandRing4
											{
												OFFSET 6.517899 0.000000 0.000000
												CHANNELS 3 Xrotation Yrotation Zrotation
												End Site
												{
													OFFSET -1.637299 6.232208 0.980890
												}
											}
										}
									}
								}
								JOINT mixamorig:LeftHandPinky1
								{
									OFFSET 20.463791 -0.302338 -8.562233
									CHANNELS 3 Xrotation Yrotation Zrotation
									JOINT mixamorig:LeftHandPinky2
									{
										OFFSET 6.908646 0.000000 0.000000
										CHANNELS 3 Xrotation Yrotation Zrotation
										JOINT mixamorig:LeftHandPinky3
										{
											OFFSET 4.622849 0.000000 0.000000
											CHANNELS 3 Xrotation Yrotation Zrotation
											JOINT mixamorig:LeftHandPinky4
											{
												OFFSET 5.216080 0.000000 0.000000
												CHANNELS 3 Xrotation Yrotation Zrotation
												End Site
												{
													OFFSET -0.606308 5.116241 0.814926
												}
											}
										}
									}
								}
							}
						}
					}
				}
				JOINT mixamorig:RightShoulder
				{
					OFFSET -12.001300 18.284088 1.348900
					CHANNELS 3 Xrotation Yrotation Zrotation
					JOINT mixamorig:RightArm
					{
						OFFSET -25.308500 -0.751312 -5.164599
						CHANNELS 3 Xrotation Yrotation Zrotation
						JOINT mixamorig:RightForeArm
						{
							OFFSET -54.684429 0.000000 0.000000
							CHANNELS 3 Xrotation Yrotation Zrotation
							JOINT mixamorig:RightHand
							{
								OFFSET -55.150291 0.000000 0.000000
								CHANNELS 3 Xrotation Yrotation Zrotation
								JOINT mixamorig:RightHandMiddle1
								{
									OFFSET -23.317566 0.000000 0.000000
									CHANNELS 3 Xrotation Yrotation Zrotation
									JOINT mixamorig:RightHandMiddle2
									{
										OFFSET -6.378403 0.000000 0.000000
										CHANNELS 3 Xrotation Yrotation Zrotation
										JOINT mixamorig:RightHandMiddle3
										{
											OFFSET -6.148193 0.000000 0.000000
											CHANNELS 3 Xrotation Yrotation Zrotation
											JOINT mixamorig:RightHandMiddle4
											{
												OFFSET -6.583389 0.000000 0.000000
												CHANNELS 3 Xrotation Yrotation Zrotation
												End Site
												{
													OFFSET 1.171692 6.395905 1.029786
												}
											}
										}
									}
								}
								JOINT mixamorig:RightHandThumb1
								{
									OFFSET -7.190521 -3.860474 5.435846
									CHANNELS 3 Xrotation Yrotation Zrotation
									JOINT mixamorig:RightHandThumb2
									{
										OFFSET -6.567429 -3.791718 3.791708
										CHANNELS 3 Xrotation Yrotation Zrotation
										JOINT mixamorig:RightHandThumb3
										{
											OFFSET -6.062469 -3.500153 3.500166
											CHANNELS 3 Xrotation Yrotation Zrotation
											JOINT mixamorig:RightHandThumb4
											{
												OFFSET -4.792618 -2.767029 2.767022
												CHANNELS 3 Xrotation Yrotation Zrotation
												End Site
												{
													OFFSET -0.100327 6.053253 1.276754
												}
											}
										}
									}
								}
								JOINT mixamorig:RightHandIndex1
								{
									OFFSET -23.048981 -0.310791 4.992554
									CHANNELS 3 Xrotation Yrotation Zrotation
									JOINT mixamorig:RightHandIndex2
									{
										OFFSET -6.227539 0.000000 0.000000
										CHANNELS 3 Xrotation Yrotation Zrotation
										JOINT mixamorig:RightHandIndex3
										{
											OFFSET -6.095047 0.000000 0.000000
											CHANNELS 3 Xrotation Yrotation Zrotation
											JOINT mixamorig:RightHandIndex4
											{
												OFFSET -5.484772 0.000000 0.000000
												CHANNELS 3 Xrotation Yrotation Zrotation
												End Site
												{
													OFFSET 1.420593 5.237305 0.797056
												}
											}
										}
									}
								}
								JOINT mixamorig:RightHandRing1
								{
									OFFSET -22.246323 0.020569 -3.963762
									CHANNELS 3 Xrotation Yrotation Zrotation
									JOINT mixamorig:RightHandRing2
									{
										OFFSET -6.322128 0.000000 0.000000
										CHANNELS 3 Xrotation Yrotation Zrotation
										JOINT mixamorig:RightHandRing3
										{
											OFFSET -5.900024 0.000000 0.000000
											CHANNELS 3 Xrotation Yrotation Zrotation
											JOINT mixamorig:RightHandRing4
											{
												OFFSET -6.518356 0.000000 0.000000
												CHANNELS 3 Xrotation Yrotation Zrotation
												End Site
												{
													OFFSET 1.636398 6.232697 0.982186
												}
											}
										}
									}
								}
								JOINT mixamorig:RightHandPinky1
								{
									OFFSET -20.411011 -0.303314 -8.561701
									CHANNELS 3 Xrotation Yrotation Zrotation
									JOINT mixamorig:RightHandPinky2
									{
										OFFSET -6.907349 0.000000 0.000000
										CHANNELS 3 Xrotation Yrotation Zrotation
										JOINT mixamorig:RightHandPinky3
										{
											OFFSET -4.623840 0.000000 0.000000
											CHANNELS 3 Xrotation Yrotation Zrotation
											JOINT mixamorig:RightHandPinky4
											{
												OFFSET -5.218353 0.000000 0.000000
												CHANNELS 3 Xrotation Yrotation Zrotation
												End Site
												{
													OFFSET 0.602097 5.118835 0.816273
												}
											}
										}
									}
								}
							}
						}
					}
				}
			}
		}
	}
	JOINT mixamorig:LeftUpLeg
	{
		OFFSET 18.168400 -13.561905 -0.039000
		CHANNELS 3 Xrotation Yrotation Zrotation
		JOINT mixamorig:LeftLeg
		{
			OFFSET 0.577358 -80.825211 -3.695000
			CHANNELS 3 Xrotation Yrotation Zrotation
			JOINT mixamorig:LeftFoot
			{
				OFFSET -0.577356 -83.370262 -6.520700
				CHANNELS 3 Xrotation Yrotation Zrotation
				JOINT mixamorig:LeftToeBase
				{
					OFFSET 0.750401 -20.798306 25.135401
					CHANNELS 3 Xrotation Yrotation Zrotation
					JOINT mixamorig:LeftToe_End
					{
						OFFSET -0.000500 0.001200 19.917799
						CHANNELS 3 Xrotation Yrotation Zrotation
						End Site
						{
							OFFSET 0.000000 19.917805 0.000000
						}
					}
				}
			}
		}
	}
	JOINT mixamorig:RightUpLeg
	{
		OFFSET -18.162500 -13.585098 -0.041000
		CHANNELS 3 Xrotation Yrotation Zrotation
		JOINT mixamorig:RightLeg
		{
			OFFSET -0.595024 -80.945297 -3.631900
			CHANNELS 3 Xrotation Yrotation Zrotation
			JOINT mixamorig:RightFoot
			{
				OFFSET 0.595024 -83.218193 -6.561200
				CHANNELS 3 Xrotation Yrotation Zrotation
				JOINT mixamorig:RightToeBase
				{
					OFFSET -0.753601 -20.807106 25.115000
					CHANNELS 3 Xrotation Yrotation Zrotation
					JOINT mixamorig:RightToe_End
					{
						OFFSET 0.000299 0.001700 19.918200
						CHANNELS 3 Xrotation Yrotation Zrotation
						End Site
						{
							OFFSET 0.000000 19.918203 0.000000
						}
					}
				}
			}
		}
	}
}
MOTION
Frames: 6
Frame Time: 0.033333
0.530019 198.497116 -0.961370 -4.500943 1.941746 -2.746613 0.606680 -1.135615 1.268307 1.230200 -2.229291 2.270505 1.230199 -2.229291 2.270505 5.706977 0.757828 0.927546 -5.447008 0.763253 1.573596 -0.000000 -0.000000 0.000000 -0.000000 -0.000000 0.000000 -0.000000 -0.000000 0.000000 0.666539 -11.034002 -8.504660 8.447335 -11.906869 -71.023463 -83.058686 -82.838836 -82.828379 0.020123 -15.547870 31.692320 -3.204523 5.232254 -26.413474 8.078169 3.261277 -105.245982 6.341162 1.706395 -28.410322 -0.000000 0.000001 -0.000001 -3.663774 11.096004 15.285014 -3.761188 17.617421 22.630662 -12.053886 -23.268504 -8.627583 0.000002 0.000001 -0.000003 0.160095 5.120811 -3.578758 9.269660 3.064274 -117.032177 4.831061 -0.728514 -23.783342 -0.000000 0.000001 0.000001 3.050203 2.854201 -39.502652 2.901521 8.409468 -119.434669 6.528190 1.607365 -32.812478 -0.000000 0.000001 -0.000001 -18.234179 9.050835 -27.340930 9.457223 6.518736 -111.346263 10.418739 6.383637 -28.866312 -0.000002 -0.000001 -0.000002 0.536279 4.029487 20.020297 10.126074 19.968231 51.598715 -81.983922 64.445007 81.280747 -4.963201 13.659966 -10.394176 -2.301885 -5.272805 52.070480 6.840159 -2.034436 60.158141 6.204547 4.339715 17.761601 0.000002 0.000002 0.000003 -2.043743 -4.472775 -6.534500 -1.678669 -16.573049 -17.995585 -10.117555 20.272124 7.453114 -0.000001 0.000000 -0.000000 -2.151204 -1.231861 25.969503 4.241344 -2.900299 59.213362 4.646666 2.342210 16.501078 0.000003 -0.000000 -0.000001 1.221990 -9.846686 72.736932 7.951333 -2.392935 56.914457 6.249360 6.105729 18.085851 0.000004 0.000001 0.000000 1.294255 -13.770326 81.336953 10.462299 -3.799891 56.693060 10.557752 0.788954 6.436188 0.000001 -0.000001 -0.000001 -10.560921 9.914608 10.646592 23.866400 16.101758 0.693807 -8.564198 0.465109 -8.432995 -1.946842 -0.000011 -0.000000 -0.000000 -0.000001 0.000000 -3.963495 -3.352732 8.315828 14.371616 -1.603823 -0.026750 -6.467898 0.294300 -5.638233 0.615871 0.000001 -0.000001 -0.000000 0.000000 0.000000 
0.542322 198.503723 -0.970027 -4.514098 1.923789 -2.743189 0.605739 -1.131292 1.261432 1.228123 -2.220694 2.256934 1.228123 -2.220696 2.256935 5.750916 0.758294 0.926869 -5.427627 0.779803 1.574675 -0.000000 -0.000000 0.000000 -0.000000 -0.000000 0.000000 -0.000000 -0.000000 0.000000 0.665734 -11.010637 -8.512252 8.456184 -11.898744 -71.051603 -82.653055 -82.639524 -82.415829 0.049982 -15.709608 31.644389 -3.204521 5.232253 -26.413474 8.078173 3.261276 -105.245975 6.341163 1.706397 -28.410324 0.000002 0.000002 0.000005 -3.663772 11.096003 15.285016 -3.761188 17.617419 22.630660 -12.053887 -23.268506 -8.627586 0.000001 -0.000000 0.000002 0.160098 5.120811 -3.578759 9.269660 3.064275 -117.032177 4.831061 -0.728514 -23.783349 0.000000 -0.000001 -0.000001 3.050205 2.854201 -39.502659 2.901524 8.409466 -119.434682 6.528189 1.607365 -32.812481 0.000000 -0.000000 -0.000000 -18.234180 9.050834 -27.340933 9.457224 6.518738 -111.346256 10.418740 6.383637 -28.866309 -0.000002 -0.000002 0.000002 0.539547 3.989323 20.091065 10.130835 19.932391 51.587913 -82.012014 64.688059 81.334125 -4.974777 13.486388 -10.395788 -2.301896 -5.272824 52.070483 6.840161 -2.034451 60.158134 6.204563 4.339719 17.761593 0.000003 0.000002 0.000000 -2.043743 -4.472771 -6.534503 -1.678645 -16.573073 -17.995566 -10.117552 20.272138 7.453085 -0.000001 0.000000 -0.000001 -2.151208 -1.231874 25.969506 4.241360 -2.900285 59.213348 4.646665 2.342204 16.501064 0.000001 0.000000 0.000002 1.221994 -9.846706 72.736945 7.951325 -2.392962 56.914423 6.249369 6.105747 18.085875 0.000000 -0.000001 -0.000003 1.294250 -13.770340 81.336959 10.462284 -3.799902 56.693060 10.557748 0.788937 6.436196 -0.000002 -0.000001 -0.000001 -10.535717 9.933591 10.639407 23.843803 16.104811 0.693576 -8.555801 0.465136 -8.426016 -1.950600 -0.000001 -0.000001 0.000000 0.000003 0.000000 -3.944978 -3.344338 8.308064 14.353858 -1.591267 -0.026626 -6.454567 0.293777 -5.635286 0.617809 0.000001 0.000001 -0.000000 0.000000 0.000000 
0.546767 198.501068 -0.978014 -4.525551 1.919878 -2.741419 0.604947 -1.126571 1.257462 1.226400 -2.211291 2.249215 1.226400 -2.211288 2.249213 5.805411 0.760049 0.911455 -5.391041 0.823125 1.555573 0.000000 0.000000 -0.000000 0.000000 0.000000 -0.000000 0.000000 0.000000 -0.000000 0.664284 -10.989663 -8.531361 8.551935 -11.878895 -71.065325 -81.632297 -82.613515 -81.369560 0.093969 -15.915611 31.601871 -3.204522 5.232254 -26.413474 8.078171 3.261277 -105.245975 6.341160 1.706396 -28.410324 0.000001 0.000001 -0.000001 -3.663775 11.096004 15.285012 -3.761188 17.617419 22.630664 -12.053886 -23.268504 -8.627582 -0.000001 0.000001 -0.000002 0.160095 5.120811 -3.578760 9.269660 3.064275 -117.032177 4.831061 -0.728514 -23.783352 -0.000001 -0.000001 -0.000001 3.050202 2.854199 -39.502652 2.901521 8.409466 -119.434669 6.528190 1.607364 -32.812481 -0.000002 0.000001 -0.000001 -18.234179 9.050835 -27.340928 9.457225 6.518736 -111.346263 10.418736 6.383638 -28.866309 -0.000002 0.000000 0.000001 0.542526 3.954549 20.142778 10.192993 19.919082 51.644860 -81.714232 64.803612 81.020285 -4.992233 13.630060 -10.300742 -2.301886 -5.272803 52.070497 6.840146 -2.034451 60.158121 6.204571 4.339718 17.761605 0.000001 0.000000 -0.000000 -2.043741 -4.472758 -6.534501 -1.678648 -16.573082 -17.995575 -10.117566 20.272121 7.453104 -0.000001 0.000000 -0.000000 -2.151211 -1.231866 25.969508 4.241360 -2.900287 59.213348 4.646675 2.342207 16.501068 -0.000000 0.000000 0.000000 1.221989 -9.846704 72.736945 7.951285 -2.392973 56.914423 6.249387 6.105723 18.085871 0.000001 -0.000001 0.000002 1.294253 -13.770323 81.336966 10.462300 -3.799881 56.693053 10.557722 0.788960 6.436216 0.000001 0.000000 0.000002 -10.529652 9.940803 10.638594 23.851068 16.101809 0.693511 -8.559042 0.465152 -8.424267 -1.951451 -0.000024 0.000001 -0.000000 -0.000001 -0.000000 -3.945201 -3.342195 8.304596 14.372243 -1.590638 -0.026569 -6.461566 0.294116 -5.633614 0.616122 0.000000 -0.000003 0.000000 0.000000 0.000000 
0.542102 198.495895 -0.986622 -4.541279 1.930982 -2.743366 0.605625 -1.121048 1.257366 1.227664 -2.200156 2.248809 1.227664 -2.200155 2.248808 5.873475 0.760335 0.881464 -5.328578 0.887027 1.509215 -0.000000 0.000000 -0.000000 -0.000000 0.000000 -0.000000 -0.000000 0.000000 -0.000000 0.662450 -10.978900 -8.559217 8.709711 -11.845858 -71.069949 -80.054530 -82.692083 -79.747622 0.150952 -16.174552 31.546759 -3.204523 5.232254 -26.413474 8.078170 3.261278 -105.245968 6.341162 1.706397 -28.410324 0.000001 0.000001 -0.000002 -3.663773 11.096004 15.285014 -3.761189 17.617419 22.630666 -12.053887 -23.268506 -8.627584 0.000001 0.000001 -0.000002 0.160095 5.120812 -3.578757 9.269660 3.064275 -117.032177 4.831059 -0.728515 -23.783347 -0.000002 0.000000 0.000002 3.050203 2.854199 -39.502655 2.901520 8.409467 -119.434669 6.528187 1.607364 -32.812478 -0.000001 -0.000000 0.000002 -18.234180 9.050835 -27.340930 9.457227 6.518738 -111.346256 10.418736 6.383637 -28.866309 -0.000003 -0.000002 0.000002 0.545294 3.923460 20.181896 10.317336 19.933840 51.749943 -81.124110 64.807109 80.375870 -5.014582 14.010635 -10.157153 -2.301910 -5.272797 52.070487 6.840145 -2.034447 60.158134 6.204540 4.339725 17.761612 0.000003 -0.000000 -0.000002 -2.043759 -4.472777 -6.534477 -1.678667 -16.573058 -17.995602 -10.117552 20.272126 7.453098 0.000001 0.000001 -0.000001 -2.151220 -1.231863 25.969506 4.241344 -2.900307 59.213335 4.646682 2.342205 16.501071 0.000001 -0.000001 0.000001 1.221979 -9.846716 72.736945 7.951317 -2.392976 56.914440 6.249372 6.105745 18.085863 -0.000002 0.000001 0.000005 1.294236 -13.770328 81.336953 10.462304 -3.799875 56.693053 10.557751 0.788952 6.436207 -0.000003 -0.000001 0.000000 -10.528211 9.939594 10.645963 23.869348 16.090525 0.693444 -8.564851 0.464022 -8.425119 -1.952923 0.000008 -0.000001 0.000000 0.000001 0.000000 -3.939532 -3.340348 8.309719 14.388593 -1.605061 -0.026641 -6.469085 0.294247 -5.633769 0.611213 -0.000000 0.000000 0.000000 0.000000 0.000000 
0.528264 198.488144 -0.997196 -4.566880 1.955420 -2.751152 0.608660 -1.115582 1.260268 1.233677 -2.188959 2.253755 1.233676 -2.188960 2.253757 5.954053 0.758245 0.847342 -5.229215 0.970815 1.434196 0.000000 0.000000 0.000000 0.000000 0.000000 0.000000 0.000000 0.000000 0.000000 0.660817 -10.981868 -8.582827 8.904746 -11.798884 -71.078937 -78.009278 -82.814678 -77.641581 0.217471 -16.485869 31.468778 -3.204523 5.232253 -26.413475 8.078171 3.261278 -105.245975 6.341161 1.706395 -28.410326 -0.000001 0.000002 0.000001 -3.663773 11.096003 15.285016 -3.761188 17.617419 22.630662 -12.053888 -23.268508 -8.627577 0.000000 0.000000 0.000000 0.160096 5.120811 -3.578758 9.269660 3.064275 -117.032177 4.831060 -0.728515 -23.783349 -0.000001 0.000000 -0.000006 3.050203 2.854198 -39.502652 2.901522 8.409466 -119.434669 6.528188 1.607365 -32.812481 -0.000001 0.000000 -0.000001 -18.234180 9.050832 -27.340930 9.457225 6.518739 -111.346270 10.418738 6.383637 -28.866306 -0.000002 0.000000 0.000002 0.547847 3.893253 20.223463 10.494546 19.978923 51.867439 -80.343590 64.730741 79.511216 -5.039089 14.542890 -10.006304 -2.301899 -5.272794 52.070490 6.840142 -2.034458 60.158107 6.204555 4.339714 17.761600 -0.000002 0.000001 0.000003 -2.043761 -4.472777 -6.534485 -1.678634 -16.573049 -17.995592 -10.117558 20.272126 7.453113 0.000004 -0.000000 -0.000000 -2.151220 -1.231862 25.969499 4.241348 -2.900305 59.213341 4.646691 2.342208 16.501073 0.000001 -0.000002 0.000000 1.221984 -9.846682 72.736945 7.951291 -2.392964 56.914423 6.249385 6.105739 18.085858 -0.000001 -0.000002 -0.000000 1.294238 -13.770324 81.336959 10.462317 -3.799862 56.693067 10.557717 0.788948 6.436194 -0.000002 -0.000001 0.000000 -10.527120 9.933728 10.665150 23.899614 16.068459 0.693392 -8.573960 0.461602 -8.428552 -1.958480 -0.000001 0.000001 0.000000 0.000001 0.000000 -3.920564 -3.338220 8.326005 14.399424 -1.632839 -0.026833 -6.475489 0.293944 -5.636178 0.604818 0.000000 -0.000003 -0.000000 0.000000 0.000000 
0.506008 198.478043 -1.009439 -4.602886 1.989752 -2.763428 0.612971 -1.111636 1.263322 1.242256 -2.180677 2.258525 1.242257 -2.180676 2.258525 6.046731 0.755229 0.823065 -5.083759 1.078860 1.340214 0.000000 0.000000 0.000000 0.000000 0.000000 0.000000 0.000000 0.000000 0.000000 0.660644 -10.996551 -8.587108 9.117674 -11.743032 -71.102645 -75.637419 -82.923073 -75.194119 0.289386 -16.846137 31.362627 -3.204523 5.232255 -26.413474 8.078172 3.261277 -105.245975 6.341161 1.706395 -28.410326 0.000001 0.000000 -0.000001 -3.663771 11.096003 15.285016 -3.761191 17.617423 22.630664 -12.053884 -23.268503 -8.627583 0.000001 0.000001 -0.000002 0.160096 5.120812 -3.578759 9.269662 3.064274 -117.032177 4.831059 -0.728514 -23.783349 -0.000000 0.000001 -0.000002 3.050204 2.854200 -39.502655 2.901522 8.409466 -119.434682 6.528189 1.607364 -32.812481 -0.000000 0.000000 -0.000000 -18.234175 9.050832 -27.340930 9.457226 6.518737 -111.346263 10.418735 6.383639 -28.866306 -0.000001 -0.000001 0.000002 0.550276 3.864481 20.279071 10.703034 20.042785 51.973945 -79.508197 64.629115 78.577160 -5.059601 15.139919 -9.878950 -2.301901 -5.272804 52.070490 6.840155 -2.034447 60.158114 6.204575 4.339728 17.761615 0.000000 0.000001 -0.000002 -2.043761 -4.472784 -6.534484 -1.678661 -16.573058 -17.995575 -10.117534 20.272138 7.453084 0.000002 -0.000000 -0.000000 -2.151217 -1.231857 25.969506 4.241340 -2.900297 59.213335 4.646675 2.342201 16.501073 -0.000000 0.000001 -0.000002 1.221991 -9.846711 72.736945 7.951325 -2.392954 56.914416 6.249382 6.105735 18.085866 -0.000001 0.000001 0.000005 1.294246 -13.770343 81.336959 10.462316 -3.799864 56.693067 10.557725 0.788961 6.436191 0.000000 0.000001 0.000001 -10.524185 9.925856 10.694658 23.940088 16.036891 0.693272 -8.586043 0.458051 -8.434404 -1.967132 0.000021 0.000001 0.000000 0.000004 0.000000 -3.888048 -3.337459 8.351175 14.405728 -1.668601 -0.027082 -6.480886 0.293130 -5.641055 0.599578 0.000000 0.000000 -0.000000 -0.000000 -0.000000 
